<svg width="24" height="24" viewBox="0 0 24 24" fill="none" xmlns="http://www.w3.org/2000/svg">
<path d="M18.08 17.8001C17.62 17.9301 17.21 18.0001 16.85 18.0001C15.65 18.0001 14.84 17.1201 14.43 15.3501H14.38C13.39 17.2601 12 18.2101 10.25 18.2101C8.94004 18.2101 7.89004 17.7201 7.10004 16.7301C6.31004 15.7401 5.92004 14.5001 5.92004 13.0001C5.92004 11.2501 6.37004 9.85012 7.26004 8.76012C8.15004 7.67012 9.36004 7.12012 10.89 7.12012C11.71 7.12012 12.45 7.35012 13.09 7.80012C13.73 8.26012 14.22 8.90012 14.56 9.73012H14.6L15.31 7.33012H17.87L15.73 12.6501C15.97 13.8901 16.22 14.7401 16.5 15.1901C16.74 15.6401 17.08 15.8701 17.5 15.8701C17.74 15.8701 17.93 15.8301 18.1 15.7601L18.08 17.8001ZM13.82 12.5601C13.61 11.4301 13.27 10.5501 12.81 9.95012C12.36 9.34012 11.81 9.04012 11.18 9.04012C10.36 9.04012 9.70004 9.41012 9.21004 10.1401C8.72004 10.8801 8.50004 11.7901 8.50004 12.8601C8.50004 13.8401 8.69004 14.6501 9.12004 15.3101C9.54004 15.9701 10.11 16.2901 10.82 16.2901C11.42 16.2901 11.97 16.0001 12.46 15.4501C12.96 14.8801 13.37 14.0501 13.7 12.9601L13.82 12.5601Z" fill="#1483C2"/>
</svg>
