<svg width="30" height="29" viewBox="0 0 30 29" fill="none" xmlns="http://www.w3.org/2000/svg">
<path d="M22.8274 22.084C23.573 22.8297 23.573 24.0378 22.8274 24.7822C22.0818 25.5278 20.8736 25.5278 20.1292 24.7822C19.3836 24.0366 19.3836 22.8285 20.1292 22.084C20.8749 21.3384 22.083 21.3384 22.8274 22.084" stroke="#2B2B2B" stroke-width="1.80682" stroke-linecap="round" stroke-linejoin="round"/>
<path d="M9.57712 22.0836C10.3227 22.8292 10.3227 24.0374 9.57712 24.7818C8.8315 25.5274 7.62334 25.5274 6.87894 24.7818C6.13453 24.0362 6.13332 22.828 6.87894 22.0836C7.62455 21.3392 8.8315 21.338 9.57712 22.0836" stroke="#2B2B2B" stroke-width="1.80682" stroke-linecap="round" stroke-linejoin="round"/>
<path d="M12.3428 4.86353H17.1609C17.8258 4.86353 18.3655 5.40316 18.3655 6.06807V18.1135H2.70639" stroke="#2B2B2B" stroke-width="1.80682" stroke-linecap="round" stroke-linejoin="round"/>
<path d="M6.32003 23.4328H3.91094C3.24603 23.4328 2.70639 22.8932 2.70639 22.2283V15.7044" stroke="#2B2B2B" stroke-width="1.80682" stroke-linecap="round" stroke-linejoin="round"/>
<path d="M18.3655 8.47716H23.5727C24.0654 8.47716 24.5087 8.77709 24.6906 9.23482L26.6251 14.0699C26.7383 14.3541 26.7973 14.6577 26.7973 14.9636V22.1283C26.7973 22.7932 26.2577 23.3328 25.5928 23.3328H23.3872" stroke="#2B2B2B" stroke-width="1.80682" stroke-linecap="round" stroke-linejoin="round"/>
<path d="M19.57 23.4375H10.1384" stroke="#2B2B2B" stroke-width="1.80682" stroke-linecap="round" stroke-linejoin="round"/>
<path d="M26.7973 16.909H21.9791V12.0908H25.8337" stroke="#2B2B2B" stroke-width="1.80682" stroke-linecap="round" stroke-linejoin="round"/>
<path d="M2.70638 4.86364H8.7291" stroke="#2B2B2B" stroke-width="1.80682" stroke-linecap="round" stroke-linejoin="round"/>
<path d="M2.70639 8.47716H6.32003" stroke="#2B2B2B" stroke-width="1.80682" stroke-linecap="round" stroke-linejoin="round"/>
<path d="M3.91094 12.0908H2.70639" stroke="#2B2B2B" stroke-width="1.80682" stroke-linecap="round" stroke-linejoin="round"/>
</svg>
