<svg width="63" height="50" viewBox="0 0 63 50" fill="none" xmlns="http://www.w3.org/2000/svg">
<g clip-path="url(#clip0_6611_1136)">
<path d="M5.1875 0C2.59961 0 0.5 2.09961 0.5 4.6875V35.9375C0.5 38.5254 2.59961 40.625 5.1875 40.625H6.75C6.75 45.8008 10.9492 50 16.125 50C21.3008 50 25.5 45.8008 25.5 40.625H38C38 45.8008 42.1992 50 47.375 50C52.5508 50 56.75 45.8008 56.75 40.625H59.875C61.6035 40.625 63 39.2285 63 37.5C63 35.7715 61.6035 34.375 59.875 34.375V28.125V25V23.1738C59.875 21.5137 59.2207 19.9219 58.0488 18.75L50.5 11.2012C49.3281 10.0293 47.7363 9.375 46.0762 9.375H41.125V4.6875C41.125 2.09961 39.0254 0 36.4375 0H5.1875ZM41.125 15.625H46.0762L53.625 23.1738V25H41.125V15.625ZM11.4375 40.625C11.4375 39.3818 11.9314 38.1895 12.8104 37.3104C13.6895 36.4314 14.8818 35.9375 16.125 35.9375C17.3682 35.9375 18.5605 36.4314 19.4396 37.3104C20.3186 38.1895 20.8125 39.3818 20.8125 40.625C20.8125 41.8682 20.3186 43.0605 19.4396 43.9396C18.5605 44.8186 17.3682 45.3125 16.125 45.3125C14.8818 45.3125 13.6895 44.8186 12.8104 43.9396C11.9314 43.0605 11.4375 41.8682 11.4375 40.625ZM47.375 35.9375C48.6182 35.9375 49.8105 36.4314 50.6896 37.3104C51.5686 38.1895 52.0625 39.3818 52.0625 40.625C52.0625 41.8682 51.5686 43.0605 50.6896 43.9396C49.8105 44.8186 48.6182 45.3125 47.375 45.3125C46.1318 45.3125 44.9395 44.8186 44.0604 43.9396C43.1814 43.0605 42.6875 41.8682 42.6875 40.625C42.6875 39.3818 43.1814 38.1895 44.0604 37.3104C44.9395 36.4314 46.1318 35.9375 47.375 35.9375Z" fill="#1483C2"/>
</g>
<defs>
<clipPath id="clip0_6611_1136">
<rect width="62.5" height="50" fill="white" transform="translate(0.5)"/>
</clipPath>
</defs>
</svg>
