<svg width="51" height="50" viewBox="0 0 51 50" fill="none" xmlns="http://www.w3.org/2000/svg">
<g clip-path="url(#clip0_6611_1140)">
<path d="M25.3632 4.6875C14.1425 4.6875 5.05069 13.7793 5.05069 25V28.9062C5.05069 30.2051 4.00577 31.25 2.70694 31.25C1.40811 31.25 0.36319 30.2051 0.36319 28.9062V25C0.36319 11.1914 11.5546 0 25.3632 0C39.1718 0 50.3632 11.1914 50.3632 25V39.0723C50.3632 43.8184 46.5155 47.666 41.7597 47.666L30.9882 47.6562C30.1776 49.0527 28.664 50 26.9257 50H23.8007C21.2128 50 19.1132 47.9004 19.1132 45.3125C19.1132 42.7246 21.2128 40.625 23.8007 40.625H26.9257C28.664 40.625 30.1776 41.5723 30.9882 42.9688L41.7694 42.9785C43.9276 42.9785 45.6757 41.2305 45.6757 39.0723V25C45.6757 13.7793 36.5839 4.6875 25.3632 4.6875ZM14.4257 20.3125H15.9882C17.7167 20.3125 19.1132 21.709 19.1132 23.4375V34.375C19.1132 36.1035 17.7167 37.5 15.9882 37.5H14.4257C10.9784 37.5 8.17569 34.6973 8.17569 31.25V26.5625C8.17569 23.1152 10.9784 20.3125 14.4257 20.3125ZM36.3007 20.3125C39.748 20.3125 42.5507 23.1152 42.5507 26.5625V31.25C42.5507 34.6973 39.748 37.5 36.3007 37.5H34.7382C33.0097 37.5 31.6132 36.1035 31.6132 34.375V23.4375C31.6132 21.709 33.0097 20.3125 34.7382 20.3125H36.3007Z" fill="#1483C2"/>
</g>
<defs>
<clipPath id="clip0_6611_1140">
<rect width="50" height="50" fill="white" transform="translate(0.36319)"/>
</clipPath>
</defs>
</svg>
