<svg width="28" height="28" viewBox="0 0 28 28" fill="none" xmlns="http://www.w3.org/2000/svg">
<path d="M19.8756 16.2619C18.0687 18.0687 18.0687 19.8756 16.2619 19.8756C14.455 19.8756 12.6481 18.0687 10.8412 16.2619C9.03437 14.455 7.2275 12.6481 7.2275 10.8412C7.2275 9.03437 9.03437 9.03437 10.8412 7.2275C12.6481 5.42062 7.2275 0 5.42062 0C3.61375 0 0 5.42062 0 5.42062C0 9.03437 3.71313 16.3613 7.2275 19.8756C10.7419 23.39 18.0687 27.1031 21.6825 27.1031C21.6825 27.1031 27.1031 23.4894 27.1031 21.6825C27.1031 19.8756 21.6825 14.455 19.8756 16.2619Z" fill="#2B2B2B"/>
</svg>
